# xmcd CD database file
#
# Track frame offsets:
#	150
#	18213
#	34705
#	49669
#	64020
#	76439
#	94992
#	107430
#	126941
#	141950
#
# Disc length: 2140 seconds
#
# Revision: 0
# Processed by: cddbd v1.5PL3 Copyright (c) Steve Scherf et al.
# Submitted via: CDex 1.50beta9
#
DISCID=7e085a0a
DTITLE=Arouge - Arouge (暴虐の貴公子)
DYEAR=1984
DGENRE=ハード ロック
TTITLE0=Tonight ( I sing my heartful song for you )
TTITLE1=Everybody's Rock and Roll
TTITLE2=In my vison
TTITLE3=Makin' love
TTITLE4=Play a game
TTITLE5=No No No !
TTITLE6=Remember
TTITLE7=Chains
TTITLE8=See you in the dream
TTITLE9=Winter days
EXTD=YEAR: 1984
EXTT0=
EXTT1=
EXTT2=
EXTT3=
EXTT4=
EXTT5=
EXTT6=
EXTT7=
EXTT8=
EXTT9=
PLAYORDER=
